<svg width="810" height="212" viewBox="0 0 810 212" fill="none" xmlns="http://www.w3.org/2000/svg">
<path d="M109.116 95V14.7H157.296V26.8H122.646V47.7H153.446V59.36H122.646V82.9H157.296V95H109.116ZM187.063 95.99C179.877 95.99 174.193 94.3767 170.013 91.15C165.833 87.85 163.743 83.4133 163.743 77.84H177.273C177.273 80.1867 178.117 81.9833 179.803 83.23C181.563 84.4767 183.983 85.1 187.063 85.1H191.903C195.203 85.1 197.733 84.4767 199.493 83.23C201.327 81.9833 202.243 80.1867 202.243 77.84C202.243 75.64 201.62 74.0267 200.373 73C199.127 71.9 197.22 71.1667 194.653 70.8L179.583 68.82C174.743 68.16 171.003 66.29 168.363 63.21C165.797 60.13 164.513 56.1333 164.513 51.22C164.513 45.5 166.42 41.1367 170.233 38.13C174.047 35.05 179.547 33.51 186.733 33.51H191.793C198.54 33.51 203.967 35.05 208.073 38.13C212.18 41.21 214.307 45.3167 214.453 50.45H200.813C200.74 48.5433 199.897 47.04 198.283 45.94C196.67 44.7667 194.507 44.18 191.793 44.18H186.733C183.8 44.18 181.563 44.8033 180.023 46.05C178.483 47.2233 177.713 48.8367 177.713 50.89C177.713 52.7233 178.263 54.08 179.363 54.96C180.537 55.84 182.223 56.39 184.423 56.61L198.613 58.59C204.187 59.25 208.367 61.23 211.153 64.53C214.013 67.7567 215.443 72.12 215.443 77.62C215.443 83.4867 213.427 88.0333 209.393 91.26C205.433 94.4133 199.603 95.99 191.903 95.99H187.063ZM247.74 96.1C242.534 96.1 237.987 95.1467 234.1 93.24C230.287 91.26 227.317 88.51 225.19 84.99C223.064 81.3967 222 77.18 222 72.34V57.16C222 52.32 223.064 48.14 225.19 44.62C227.317 41.0267 230.287 38.2767 234.1 36.37C237.987 34.39 242.534 33.4 247.74 33.4C255.294 33.4 261.344 35.38 265.89 39.34C270.51 43.2267 272.93 48.5433 273.15 55.29H259.62C259.4 52.1367 258.19 49.7167 255.99 48.03C253.864 46.27 251.114 45.39 247.74 45.39C244 45.39 241.067 46.4167 238.94 48.47C236.814 50.45 235.75 53.31 235.75 57.05V72.34C235.75 76.08 236.814 78.9767 238.94 81.03C241.067 83.0833 244 84.11 247.74 84.11C251.187 84.11 253.974 83.2667 256.1 81.58C258.227 79.82 259.4 77.3633 259.62 74.21H273.15C272.93 80.9567 270.51 86.31 265.89 90.27C261.344 94.1567 255.294 96.1 247.74 96.1ZM303.907 95.99C296.134 95.99 289.974 93.8267 285.427 89.5C280.881 85.1 278.607 79.1967 278.607 71.79V57.71C278.607 50.23 280.881 44.3267 285.427 40C289.974 35.6733 296.134 33.51 303.907 33.51C311.681 33.51 317.841 35.6733 322.387 40C326.934 44.3267 329.207 50.23 329.207 57.71V71.79C329.207 79.1967 326.934 85.1 322.387 89.5C317.841 93.8267 311.681 95.99 303.907 95.99ZM303.907 84C307.574 84 310.397 83.01 312.377 81.03C314.431 78.9767 315.457 76.0433 315.457 72.23V57.27C315.457 53.4567 314.431 50.56 312.377 48.58C310.397 46.5267 307.574 45.5 303.907 45.5C300.241 45.5 297.381 46.5267 295.327 48.58C293.347 50.56 292.357 53.4567 292.357 57.27V72.23C292.357 76.0433 293.347 78.9767 295.327 81.03C297.381 83.01 300.241 84 303.907 84ZM370.854 95C364.841 95 360.001 93.2033 356.334 89.61C352.741 86.0167 350.944 81.2867 350.944 75.42V27.13H331.034V14.7H364.694V75.09C364.694 77.3633 365.318 79.1967 366.564 80.59C367.884 81.91 369.644 82.57 371.844 82.57H389.554V95H370.854ZM393.691 95V14.7H407.441V34.5L407.111 45.72C407.845 41.9067 409.641 38.9 412.501 36.7C415.361 34.5 418.991 33.4 423.391 33.4C429.331 33.4 434.061 35.38 437.581 39.34C441.175 43.3 442.972 48.6167 442.972 55.29V95H429.221V56.94C429.221 53.2 428.231 50.34 426.251 48.36C424.345 46.3067 421.741 45.28 418.441 45.28C414.995 45.28 412.281 46.3067 410.301 48.36C408.395 50.4133 407.441 53.3467 407.441 57.16V95H393.691ZM468.669 96.1C462.509 96.1 457.632 94.3767 454.039 90.93C450.519 87.41 448.759 82.8267 448.759 77.18C448.759 71.3133 450.775 66.6567 454.809 63.21C458.842 59.69 464.379 57.93 471.419 57.93H486.159V53.64C486.159 47.5533 482.602 44.51 475.489 44.51C472.262 44.51 469.695 45.1333 467.789 46.38C465.882 47.6267 464.819 49.3867 464.599 51.66H451.399C451.692 46.2333 453.965 41.8333 458.219 38.46C462.545 35.0867 468.339 33.4 475.599 33.4C483.299 33.4 489.275 35.1967 493.529 38.79C497.782 42.3833 499.909 47.4433 499.909 53.97V95H486.489V83.67C485.975 87.5567 484.142 90.6 480.989 92.8C477.835 95 473.729 96.1 468.669 96.1ZM473.069 84.88C477.102 84.88 480.292 83.89 482.639 81.91C484.985 79.93 486.159 77.29 486.159 73.99V66.84H472.079C469.072 66.84 466.689 67.6833 464.929 69.37C463.169 71.0567 462.289 73.22 462.289 75.86C462.289 78.5733 463.205 80.7733 465.039 82.46C466.945 84.0733 469.622 84.88 473.069 84.88Z" fill="#1E1E1C"/>
<path d="M564.283 96.1C559.076 96.1 554.529 95.1467 550.643 93.24C546.829 91.26 543.859 88.51 541.733 84.99C539.606 81.3967 538.543 77.18 538.543 72.34V57.16C538.543 52.32 539.606 48.14 541.733 44.62C543.859 41.0267 546.829 38.2767 550.643 36.37C554.529 34.39 559.076 33.4 564.283 33.4C571.836 33.4 577.886 35.38 582.433 39.34C587.053 43.2267 589.473 48.5433 589.693 55.29H576.163C575.943 52.1367 574.733 49.7167 572.533 48.03C570.406 46.27 567.656 45.39 564.283 45.39C560.543 45.39 557.609 46.4167 555.483 48.47C553.356 50.45 552.293 53.31 552.293 57.05V72.34C552.293 76.08 553.356 78.9767 555.483 81.03C557.609 83.0833 560.543 84.11 564.283 84.11C567.729 84.11 570.516 83.2667 572.643 81.58C574.769 79.82 575.943 77.3633 576.163 74.21H589.693C589.473 80.9567 587.053 86.31 582.433 90.27C577.886 94.1567 571.836 96.1 564.283 96.1ZM620.45 95.99C612.676 95.99 606.516 93.8267 601.97 89.5C597.423 85.1 595.15 79.1967 595.15 71.79V57.71C595.15 50.23 597.423 44.3267 601.97 40C606.516 35.6733 612.676 33.51 620.45 33.51C628.223 33.51 634.383 35.6733 638.93 40C643.476 44.3267 645.75 50.23 645.75 57.71V71.79C645.75 79.1967 643.476 85.1 638.93 89.5C634.383 93.8267 628.223 95.99 620.45 95.99ZM620.45 84C624.116 84 626.94 83.01 628.92 81.03C630.973 78.9767 632 76.0433 632 72.23V57.27C632 53.4567 630.973 50.56 628.92 48.58C626.94 46.5267 624.116 45.5 620.45 45.5C616.783 45.5 613.923 46.5267 611.87 48.58C609.89 50.56 608.9 53.4567 608.9 57.27V72.23C608.9 76.0433 609.89 78.9767 611.87 81.03C613.923 83.01 616.783 84 620.45 84ZM649.777 95V34.5H661.217V43.3H661.547C661.767 40.3667 662.793 37.9833 664.627 36.15C666.46 34.3167 668.77 33.4 671.557 33.4C674.27 33.4 676.58 34.28 678.487 36.04C680.393 37.7267 681.677 40.0367 682.337 42.97C682.63 40.0367 683.693 37.7267 685.527 36.04C687.433 34.28 689.817 33.4 692.677 33.4C696.343 33.4 699.387 34.8667 701.807 37.8C704.227 40.66 705.437 44.3633 705.437 48.91V95H693.337V49.9C693.337 47.92 692.86 46.38 691.907 45.28C691.027 44.1067 689.743 43.52 688.057 43.52C684.757 43.52 683.107 45.6467 683.107 49.9V95H672.107V49.9C672.107 47.92 671.667 46.38 670.787 45.28C669.98 44.1067 668.77 43.52 667.157 43.52C663.637 43.52 661.877 45.6467 661.877 49.9V95H649.777ZM22.5008 205V165.18H5.89079V152.75H22.5008V142.08C22.5008 136.8 24.2608 132.583 27.7808 129.43C31.3008 126.277 35.9575 124.7 41.7508 124.7H59.4608V136.8H42.0808C40.3208 136.8 38.8908 137.313 37.7908 138.34C36.7641 139.293 36.2508 140.613 36.2508 142.3V152.75H59.4608V165.18H36.2508V205H22.5008ZM100.448 205C94.4345 205 89.5945 203.203 85.9278 199.61C82.3345 196.017 80.5378 191.287 80.5378 185.42V137.13H60.6278V124.7H94.2878V185.09C94.2878 187.363 94.9112 189.197 96.1578 190.59C97.4778 191.91 99.2378 192.57 101.438 192.57H119.148V205H100.448ZM147.925 206.1C142.792 206.1 138.318 205.11 134.505 203.13C130.692 201.15 127.722 198.363 125.595 194.77C123.542 191.103 122.515 186.813 122.515 181.9V167.6C122.515 162.687 123.542 158.433 125.595 154.84C127.722 151.173 130.692 148.35 134.505 146.37C138.318 144.39 142.792 143.4 147.925 143.4C152.985 143.4 157.385 144.39 161.125 146.37C164.938 148.35 167.872 151.137 169.925 154.73C172.052 158.25 173.115 162.393 173.115 167.16V178.16H135.715V182.34C135.715 186.447 136.778 189.563 138.905 191.69C141.032 193.743 144.038 194.77 147.925 194.77C150.785 194.77 153.205 194.293 155.185 193.34C157.238 192.313 158.448 190.847 158.815 188.94H172.455C171.502 194.147 168.788 198.327 164.315 201.48C159.842 204.56 154.378 206.1 147.925 206.1ZM135.715 167.16V169.25L159.915 169.14V167.05C159.915 162.87 158.888 159.643 156.835 157.37C154.782 155.097 151.812 153.96 147.925 153.96C143.892 153.96 140.848 155.133 138.795 157.48C136.742 159.753 135.715 162.98 135.715 167.16ZM175.932 205L197.052 173.76L177.362 144.5H192.872L202.222 159.35C202.809 160.23 203.359 161.22 203.872 162.32C204.385 163.42 204.752 164.3 204.972 164.96C205.265 164.3 205.632 163.42 206.072 162.32C206.585 161.22 207.135 160.23 207.722 159.35L217.072 144.5H232.692L213.002 173.76L234.012 205H218.392L207.942 188.39C207.355 187.51 206.769 186.52 206.182 185.42C205.669 184.247 205.265 183.33 204.972 182.67C204.679 183.33 204.275 184.247 203.762 185.42C203.249 186.52 202.699 187.51 202.112 188.39L191.552 205H175.932ZM237.489 205V192.57H258.169V156.93H239.689V144.5H271.919V192.57H290.509V205H237.489ZM264.109 134.38C261.322 134.38 259.122 133.683 257.509 132.29C255.896 130.823 255.089 128.88 255.089 126.46C255.089 124.04 255.896 122.133 257.509 120.74C259.122 119.273 261.322 118.54 264.109 118.54C266.896 118.54 269.096 119.273 270.709 120.74C272.322 122.133 273.129 124.04 273.129 126.46C273.129 128.88 272.322 130.823 270.709 132.29C269.096 133.683 266.896 134.38 264.109 134.38ZM324.786 206.1C320.533 206.1 316.976 205.037 314.116 202.91C311.256 200.783 309.276 197.813 308.176 194V205H294.756V124.7H308.506V141.64L308.066 155.5C309.239 151.687 311.256 148.717 314.116 146.59C317.049 144.463 320.606 143.4 324.786 143.4C330.726 143.4 335.493 145.49 339.086 149.67C342.679 153.85 344.476 159.497 344.476 166.61V183C344.476 190.04 342.643 195.65 338.976 199.83C335.383 204.01 330.653 206.1 324.786 206.1ZM319.616 194.22C323.136 194.22 325.849 193.267 327.756 191.36C329.736 189.453 330.726 186.52 330.726 182.56V166.94C330.726 162.98 329.736 160.047 327.756 158.14C325.849 156.233 323.136 155.28 319.616 155.28C316.096 155.28 313.346 156.343 311.366 158.47C309.459 160.597 308.506 163.603 308.506 167.49V182.01C308.506 185.897 309.459 188.903 311.366 191.03C313.346 193.157 316.096 194.22 319.616 194.22ZM351.803 205V192.57H372.483V156.93H354.003V144.5H386.233V192.57H404.823V205H351.803ZM378.423 134.38C375.636 134.38 373.436 133.683 371.823 132.29C370.21 130.823 369.403 128.88 369.403 126.46C369.403 124.04 370.21 122.133 371.823 120.74C373.436 119.273 375.636 118.54 378.423 118.54C381.21 118.54 383.41 119.273 385.023 120.74C386.636 122.133 387.443 124.04 387.443 126.46C387.443 128.88 386.636 130.823 385.023 132.29C383.41 133.683 381.21 134.38 378.423 134.38ZM443.39 205C437.377 205 432.537 203.203 428.87 199.61C425.277 196.017 423.48 191.287 423.48 185.42V137.13H403.57V124.7H437.23V185.09C437.23 187.363 437.853 189.197 439.1 190.59C440.42 191.91 442.18 192.57 444.38 192.57H462.09V205H443.39ZM466.117 205V192.57H486.797V156.93H468.317V144.5H500.547V192.57H519.137V205H466.117ZM492.737 134.38C489.95 134.38 487.75 133.683 486.137 132.29C484.524 130.823 483.717 128.88 483.717 126.46C483.717 124.04 484.524 122.133 486.137 120.74C487.75 119.273 489.95 118.54 492.737 118.54C495.524 118.54 497.724 119.273 499.337 120.74C500.95 122.133 501.757 124.04 501.757 126.46C501.757 128.88 500.95 130.823 499.337 132.29C497.724 133.683 495.524 134.38 492.737 134.38ZM542.414 206.1C536.547 206.1 531.781 204.01 528.114 199.83C524.521 195.65 522.724 190.04 522.724 183V166.61C522.724 159.497 524.521 153.85 528.114 149.67C531.707 145.49 536.474 143.4 542.414 143.4C546.594 143.4 550.114 144.463 552.974 146.59C555.907 148.717 557.961 151.687 559.134 155.5L558.694 141.64V124.7H572.444V205H559.024V194C557.924 197.813 555.944 200.783 553.084 202.91C550.224 205.037 546.667 206.1 542.414 206.1ZM547.584 194.22C551.104 194.22 553.817 193.157 555.724 191.03C557.704 188.903 558.694 185.897 558.694 182.01V167.49C558.694 163.603 557.704 160.597 555.724 158.47C553.817 156.343 551.104 155.28 547.584 155.28C544.064 155.28 541.314 156.233 539.334 158.14C537.427 160.047 536.474 162.98 536.474 166.94V182.56C536.474 186.52 537.427 189.453 539.334 191.36C541.314 193.267 544.064 194.22 547.584 194.22ZM598.361 206.1C592.201 206.1 587.324 204.377 583.731 200.93C580.211 197.41 578.451 192.827 578.451 187.18C578.451 181.313 580.468 176.657 584.501 173.21C588.534 169.69 594.071 167.93 601.111 167.93H615.851V163.64C615.851 157.553 612.294 154.51 605.181 154.51C601.954 154.51 599.388 155.133 597.481 156.38C595.574 157.627 594.511 159.387 594.291 161.66H581.091C581.384 156.233 583.658 151.833 587.911 148.46C592.238 145.087 598.031 143.4 605.291 143.4C612.991 143.4 618.968 145.197 623.221 148.79C627.474 152.383 629.601 157.443 629.601 163.97V205H616.181V193.67C615.668 197.557 613.834 200.6 610.681 202.8C607.528 205 603.421 206.1 598.361 206.1ZM602.761 194.88C606.794 194.88 609.984 193.89 612.331 191.91C614.678 189.93 615.851 187.29 615.851 183.99V176.84H601.771C598.764 176.84 596.381 177.683 594.621 179.37C592.861 181.057 591.981 183.22 591.981 185.86C591.981 188.573 592.898 190.773 594.731 192.46C596.638 194.073 599.314 194.88 602.761 194.88ZM656.728 206.1C650.861 206.1 646.095 204.01 642.428 199.83C638.835 195.65 637.038 190.04 637.038 183V166.61C637.038 159.497 638.835 153.85 642.428 149.67C646.021 145.49 650.788 143.4 656.728 143.4C660.908 143.4 664.428 144.463 667.288 146.59C670.221 148.717 672.275 151.687 673.448 155.5L673.008 141.64V124.7H686.758V205H673.338V194C672.238 197.813 670.258 200.783 667.398 202.91C664.538 205.037 660.981 206.1 656.728 206.1ZM661.898 194.22C665.418 194.22 668.131 193.157 670.038 191.03C672.018 188.903 673.008 185.897 673.008 182.01V167.49C673.008 163.603 672.018 160.597 670.038 158.47C668.131 156.343 665.418 155.28 661.898 155.28C658.378 155.28 655.628 156.233 653.648 158.14C651.741 160.047 650.788 162.98 650.788 166.94V182.56C650.788 186.52 651.741 189.453 653.648 191.36C655.628 193.267 658.378 194.22 661.898 194.22ZM719.495 206.1C714.362 206.1 709.889 205.11 706.075 203.13C702.262 201.15 699.292 198.363 697.165 194.77C695.112 191.103 694.085 186.813 694.085 181.9V167.6C694.085 162.687 695.112 158.433 697.165 154.84C699.292 151.173 702.262 148.35 706.075 146.37C709.889 144.39 714.362 143.4 719.495 143.4C724.555 143.4 728.955 144.39 732.695 146.37C736.509 148.35 739.442 151.137 741.495 154.73C743.622 158.25 744.685 162.393 744.685 167.16V178.16H707.285V182.34C707.285 186.447 708.349 189.563 710.475 191.69C712.602 193.743 715.609 194.77 719.495 194.77C722.355 194.77 724.775 194.293 726.755 193.34C728.809 192.313 730.019 190.847 730.385 188.94H744.025C743.072 194.147 740.359 198.327 735.885 201.48C731.412 204.56 725.949 206.1 719.495 206.1ZM707.285 167.16V169.25L731.485 169.14V167.05C731.485 162.87 730.459 159.643 728.405 157.37C726.352 155.097 723.382 153.96 719.495 153.96C715.462 153.96 712.419 155.133 710.365 157.48C708.312 159.753 707.285 162.98 707.285 167.16Z" fill="url(#paint0_linear_247_511)"/>
<path d="M776.542 206.1C773.462 206.1 770.969 205.183 769.062 203.35C767.229 201.443 766.312 198.987 766.312 195.98C766.312 192.973 767.229 190.517 769.062 188.61C770.969 186.703 773.462 185.75 776.542 185.75C779.622 185.75 782.079 186.703 783.912 188.61C785.819 190.517 786.772 192.973 786.772 195.98C786.772 198.987 785.819 201.443 783.912 203.35C782.079 205.183 779.622 206.1 776.542 206.1Z" fill="#E9531E"/>
<rect x="518.8" y="13.8" width="209.4" height="99.4" rx="6.2" stroke="#BEBEBE" stroke-width="1.6"/>
<rect x="724" y="9" width="10" height="9" rx="2" fill="url(#paint1_linear_247_511)"/>
<rect x="513" y="9" width="10" height="9" rx="2" fill="url(#paint2_linear_247_511)"/>
<rect x="724" y="109" width="10" height="9" rx="2" fill="url(#paint3_linear_247_511)"/>
<rect x="513" y="110" width="10" height="9" rx="2" fill="url(#paint4_linear_247_511)"/>
<defs>
<linearGradient id="paint0_linear_247_511" x1="87" y1="149" x2="2425" y2="290.5" gradientUnits="userSpaceOnUse">
<stop stop-color="#BEBEBE"/>
<stop offset="1" stop-color="#585858"/>
</linearGradient>
<linearGradient id="paint1_linear_247_511" x1="721.882" y1="10.7727" x2="742.118" y2="13.6542" gradientUnits="userSpaceOnUse">
<stop stop-color="#F07F1C"/>
<stop offset="1" stop-color="#E9531E"/>
</linearGradient>
<linearGradient id="paint2_linear_247_511" x1="510.882" y1="10.7727" x2="531.118" y2="13.6542" gradientUnits="userSpaceOnUse">
<stop stop-color="#F07F1C"/>
<stop offset="1" stop-color="#E9531E"/>
</linearGradient>
<linearGradient id="paint3_linear_247_511" x1="721.882" y1="110.773" x2="742.118" y2="113.654" gradientUnits="userSpaceOnUse">
<stop stop-color="#F07F1C"/>
<stop offset="1" stop-color="#E9531E"/>
</linearGradient>
<linearGradient id="paint4_linear_247_511" x1="510.882" y1="111.773" x2="531.118" y2="114.654" gradientUnits="userSpaceOnUse">
<stop stop-color="#F07F1C"/>
<stop offset="1" stop-color="#E9531E"/>
</linearGradient>
</defs>
</svg>
